<?xml version="1.0" encoding="utf-8"?>
<!-- Generator: Adobe Illustrator 22.0.1, SVG Export Plug-In . SVG Version: 6.00 Build 0)  -->
<svg version="1.1" id="レイヤー_1" xmlns="http://www.w3.org/2000/svg" xmlns:xlink="http://www.w3.org/1999/xlink" x="0px"
	 y="0px" viewBox="0 0 392.4 45.6" style="enable-background:new 0 0 392.4 45.6;" xml:space="preserve">
<style type="text/css">
	.st0{fill:#231815;}
	.st1{fill:#1B94D3;}
</style>
<g>
	<g>
		<path class="st0" d="M27.9,1.4c7.6,0,13.6,2,18.2,5.9c4.6,4,6.9,9.1,6.9,15.3c0,5.6-2.4,11.1-7.2,16.2c-1.4,1.5-3.5,2.8-6.4,3.8
			c-3.2,1.2-6.6,1.8-10,1.8H0v-43H27.9z M29.8,36.9c4.1,0,7.5-1.3,10.1-3.9c2.6-2.6,4-5.9,4-9.9c0-4.3-1.4-7.7-4.2-10.3
			S33.2,9,28.5,9H8.4v27.9H29.8z"/>
		<path class="st0" d="M96.5,29.3c0,4.9-2.1,9-6.3,12.1c-3.6,2.6-8.1,4-13.5,4c-5.4,0-9.9-1.3-13.5-4c-4.2-3.1-6.3-7.1-6.3-12.1
			c0-4.9,2.1-8.9,6.4-12c3.7-2.7,8.2-4.1,13.5-4.1c5.2,0,9.7,1.4,13.4,4.1C94.4,20.5,96.5,24.4,96.5,29.3z M90.4,29.3
			c0-3.1-1.3-5.7-3.8-7.7s-5.8-3-9.9-3c-4.1,0-7.4,1-9.9,3c-2.6,2-3.9,4.6-3.9,7.7c0,3.2,1.3,5.8,3.8,7.8c2.5,2,5.9,3,10,3
			c4.1,0,7.4-1,9.9-3C89.1,35.1,90.4,32.5,90.4,29.3z"/>
		<path class="st0" d="M156.3,11.8l-7.7,2.7C144,9.8,138.1,7.6,131,7.6c-6.1,0-11,1.4-14.6,4.2c-3.6,2.8-5.5,6.5-5.5,10.9
			c0,4.6,1.8,8.3,5.5,11.1c3.6,2.8,8.6,4.2,14.8,4.2c7.2,0,13-2.3,17.6-7l7.2,3.8c-6.3,7.1-14.7,10.7-25,10.7
			c-8.6,0-15.5-2.1-20.8-6.4c-5.3-4.3-7.9-9.7-7.9-16.4c0-7,3-12.6,9-17c5.2-3.8,11.6-5.7,19.2-5.7C141.1,0,149.7,3.9,156.3,11.8z"
			/>
		<path class="st0" d="M200.2,29.3c0,4.9-2.1,9-6.3,12.1c-3.6,2.6-8.1,4-13.5,4c-5.4,0-9.9-1.3-13.5-4c-4.2-3.1-6.3-7.1-6.3-12.1
			c0-4.9,2.1-8.9,6.4-12c3.7-2.7,8.2-4.1,13.5-4.1c5.2,0,9.7,1.4,13.4,4.1C198,20.5,200.2,24.4,200.2,29.3z M194,29.3
			c0-3.1-1.3-5.7-3.8-7.7s-5.8-3-9.9-3c-4.1,0-7.4,1-9.9,3c-2.6,2-3.9,4.6-3.9,7.7c0,3.2,1.3,5.8,3.8,7.8c2.5,2,5.9,3,10,3
			c4.1,0,7.4-1,9.9-3C192.8,35.1,194,32.5,194,29.3z"/>
		<path class="st1" d="M268.8,44.5h-8.4L260.2,9l-21.6,29.3L217,8.8L216.8,9v35.4h-8.4v-43H221l17.6,24.3l17.6-24.3h12.6V44.5z"/>
		<path class="st0" d="M334.4,44.5h-9.2l-5-9.2h-28.9l-5,9.2h-9.2l23.4-43h10.4L334.4,44.5z M316,27.7L305.8,8.6l-10.3,19.1H316z"/>
		<path class="st0" d="M377.4,1.4c4.6,0,8.2,1.2,10.9,3.7c2.7,2.5,4.1,5.8,4.1,9.9c0,4.3-1.4,7.7-4.2,10c-2.8,2.4-6.9,3.5-12.1,3.5
			h-25v15.8h-8.4v-43H377.4z M376.2,21.1c5.1,0,7.6-2,7.6-5.9c0-4.2-2.7-6.2-8.1-6.2H351v12.1H376.2z"/>
	</g>
</g>
</svg>
