<?xml version="1.0" encoding="utf-8"?>
<!-- Generator: Adobe Illustrator 22.0.1, SVG Export Plug-In . SVG Version: 6.00 Build 0)  -->
<svg version="1.1" id="Layer_1" xmlns="http://www.w3.org/2000/svg" xmlns:xlink="http://www.w3.org/1999/xlink" x="0px" y="0px"
	 viewBox="0 0 18 18" style="enable-background:new 0 0 18 18;" xml:space="preserve">
<style type="text/css">
	.st0{fill:#0397E1;}
</style>
<path class="st0" d="M1,8.9c0-1,0.1-2,0.6-3.1s1-1.7,1.7-2.5s1.6-1.3,2.5-1.7c0.9-0.4,1.9-0.6,3.1-0.6c1,0,2,0.1,3.1,0.6
	s1.7,1,2.5,1.7c0.7,0.7,1.3,1.6,1.7,2.5c0.4,1,0.6,2,0.6,3.1s-0.1,2-0.6,3.1s-1,1.7-1.7,2.5c-0.7,0.7-1.6,1.3-2.5,1.7
	c-1,0.4-2,0.6-3.1,0.6s-2-0.1-3.1-0.6c-1-0.4-1.7-1-2.5-1.7C2.6,13.7,2,12.9,1.6,12C1.1,11.1,1,10.1,1,8.9z M3,8.9
	c0,0.7,0.1,1.6,0.4,2.2c0.3,0.7,0.7,1.3,1.3,1.9s1.2,0.9,1.9,1.3c0.7,0.3,1.5,0.4,2.2,0.4c0.7,0,1.6-0.1,2.2-0.4
	c0.7-0.3,1.3-0.7,1.9-1.3s0.9-1.2,1.3-1.9c0.3-0.7,0.4-1.5,0.4-2.2c0-0.7-0.1-1.6-0.4-2.2c-0.3-0.7-0.7-1.3-1.3-1.9S11.8,4,11,3.6
	c-0.7-0.3-1.5-0.4-2.2-0.4c-0.7,0-1.6,0.1-2.2,0.4C5.9,3.9,5.4,4.3,4.8,4.9S3.9,6,3.5,6.8C3.2,7.5,3,8.2,3,8.9z M8.9,14.2
	c-0.7,0-1.5-0.1-2-0.4c-0.6-0.3-1.2-0.6-1.6-1.2c-0.4-0.4-0.9-1-1.2-1.6c-0.3-0.6-0.4-1.3-0.4-2c0-0.7,0.1-1.5,0.4-2
	c0.3-0.6,0.6-1.2,1.2-1.6c0.4-0.4,1-0.9,1.6-1.2s1.3-0.4,2-0.4c0.7,0,1.5,0.1,2,0.4c0.6,0.3,1.2,0.6,1.6,1.2c0.4,0.6,0.9,1,1.2,1.6
	c0.3,0.6,0.4,1.3,0.4,2c0,0.7-0.1,1.5-0.4,2c-0.3,0.6-0.6,1.2-1.2,1.6c-0.4,0.4-1,0.9-1.6,1.2C10.2,14,9.6,14.2,8.9,14.2z M5.7,8.9
	c0,0.4,0.1,0.9,0.3,1.2c0.1,0.4,0.4,0.7,0.7,1c0.3,0.3,0.6,0.6,1,0.7c0.4,0.1,0.7,0.3,1.2,0.3c0.4,0,0.9-0.1,1.2-0.3
	c0.4-0.1,0.7-0.4,1-0.7c0.3-0.3,0.6-0.6,0.7-1C11.9,9.7,12,9.4,12,8.9s-0.1-0.9-0.3-1.2c-0.1-0.4-0.4-0.7-0.7-1
	c-0.3-0.3-0.6-0.6-1-0.7C9.6,5.9,9.3,5.8,8.8,5.8C8.4,5.8,8,5.9,7.7,6C7.3,6.2,7,6.5,6.7,6.8c-0.3,0.3-0.6,0.6-0.7,1
	C5.8,8.1,5.7,8.5,5.7,8.9z M8.9,6.3c-1.5,0-2.6,1.2-2.6,2.6s1.2,2.6,2.6,2.6s2.6-1.2,2.6-2.6S10.2,6.3,8.9,6.3z M8.7,8.8
	C8.7,8.9,8.6,8.9,8.7,8.8L8.7,8.8C8.6,8.9,8.4,8.9,8.4,8.9l0,0v0.1l0,0v0.1v0.1c0,0.1-0.1,0.1-0.1,0.1l0,0c0,0-0.1,0-0.1-0.1
	L7.8,8.9H7.7L7.5,9.1H7.4H6.8c0-0.1,0-0.1,0-0.3c0-1.2,0.9-2,2-2c0.3,0,0.4,0,0.6,0.1L8.9,7.4v0.1H9l0.1,0.1v0.9c0,0,0,0.1-0.1,0.1
	l0,0c0,0,0,0-0.1,0c0,0,0,0-0.1,0L8.7,8.8L8.7,8.8z M10.4,10C10.4,10,10.4,10.1,10.4,10l-0.1,0.1h-0.1H10H9.9L9.7,10
	c0,0-0.1-0.1-0.3,0H9.1l0,0H9H8.9l0-0.1l0,0V9.7c0,0,0,0,0-0.1l0.4-0.1l0,0l0.3-0.1l0,0h0.3c0,0,0,0,0.1,0v0.1l0,0l0,0l0,0V9.2l0,0
	l0,0l0,0v0.1l0,0l0.1,0.1v0.1L10.4,10L10.4,10z"/>
</svg>
