<?xml version="1.0" encoding="utf-8"?>
<!-- Generator: Adobe Illustrator 22.0.1, SVG Export Plug-In . SVG Version: 6.00 Build 0)  -->
<svg version="1.1" id="Layer_1" xmlns="http://www.w3.org/2000/svg" xmlns:xlink="http://www.w3.org/1999/xlink" x="0px" y="0px"
	 viewBox="0 0 243.6 32" style="enable-background:new 0 0 243.6 32;" xml:space="preserve">
<style type="text/css">
	.st0{fill:#0097E0;}
</style>
<g>
	<path class="st0" d="M13.7,25.8v-2.1c-1,2-3.5,2.5-5.4,2.5C3.5,26.2,0,23,0,16.9c0-6.2,3.9-9.4,8.2-9.4c2.1,0,3.5,0.6,4.4,1.5V0.7
		h5.6v25.1H13.7z M12.8,14.2c-0.5-1.3-1.6-2.3-3.3-2.3c-2.1,0-3.8,1.7-3.8,5c0,3.3,1.5,4.9,3.8,4.9c1.8,0,3.3-1.5,3.3-3.5V14.2z"/>
	<path class="st0" d="M30.2,26.2c-5.9,0-9.5-3.7-9.5-9.4c0-5.7,3.6-9.4,9.5-9.4s9.4,3.7,9.4,9.4C39.6,22.5,36.1,26.2,30.2,26.2z
		 M30.2,12c-2.3,0-3.7,1.9-3.7,4.9s1.5,4.9,3.7,4.9s3.7-1.9,3.7-4.9C33.9,13.8,32.5,12,30.2,12z"/>
	<path class="st0" d="M50.7,26.2c-5.1,0-9.6-3.2-9.6-9.4c0-5.7,4-9.4,9.6-9.4c3.2,0,5.2,0.8,6.9,2.1l-1.8,4.4
		c-1.1-1.3-2.7-1.9-4.3-1.9c-2.3,0-4.7,1.5-4.7,4.8c0,3.4,2.3,4.9,4.9,4.9c1.6,0,3.5-0.8,4.5-2.2l1.8,4
		C56.1,25.4,54.1,26.2,50.7,26.2z"/>
	<path class="st0" d="M68.2,26.2c-5.9,0-9.5-3.7-9.5-9.4c0-5.7,3.6-9.4,9.5-9.4s9.4,3.7,9.4,9.4C77.6,22.5,74.1,26.2,68.2,26.2z
		 M68.2,12c-2.3,0-3.7,1.9-3.7,4.9s1.5,4.9,3.7,4.9s3.7-1.9,3.7-4.9C71.9,13.8,70.5,12,68.2,12z"/>
	<path class="st0" d="M100.1,25.8v-11c0-1.9-0.6-2.7-2.1-2.7c-1.5,0-2.3,1.2-2.4,2.5v11.2H90v-11c0-1.8-0.5-2.7-2-2.7
		c-1.3,0-2,1-2.4,2.3v11.5H80v-18h5.1v2c0.8-1.5,2.4-2.4,5.1-2.4c2.2,0,3.9,1.1,4.6,2.7c0.8-1.7,2.9-2.7,5.4-2.7
		c3.2,0,5.4,2.5,5.4,6v12.4H100.1z"/>
	<path class="st0" d="M125.5,26c-0.5,0.1-1.1,0.2-1.6,0.2c-1.9,0-3.6-0.8-4-2.1c-1.2,1.5-3.5,2.1-6.1,2.1c-3.6,0-5.6-1.9-5.6-5
		c0,0,0-0.1,0-0.1c0-3.4,1.9-5.3,6.3-6.3c2.3-0.5,3.8-1.1,3.8-1.8c0-1-0.6-1.3-2.3-1.3c-1.5,0-4,1.1-5.2,2.6l-2.2-4
		c1.8-1.9,4.3-3,7.9-3c5.3,0,7.7,2,7.7,6v6.8c0,1,0.7,1.3,1.6,1.3c0.3,0,0.6,0,0.9-0.1L125.5,26z M118.4,17.1
		c-0.5,0.5-1.4,0.8-2.6,1.2c-1.5,0.4-2.2,1-2.2,2.4c0,0.9,0.6,1.4,1.8,1.4c1.2,0,2.7-0.8,3-2.1V17.1z"/>
	<path class="st0" d="M137.9,26.2c-1.6,0-3.5-0.6-4.4-1.5V32h-5.6V7.9h5.1v2.3c0.6-1.7,2.9-2.7,4.9-2.7c4.8,0,8.1,3.3,8.1,9.4
		C146,23,142.5,26.2,137.9,26.2z M136.6,12c-1.8,0-3.2,1.5-3.2,3.5v4.1c0.5,1.1,1.6,2.2,3.3,2.2c2.1,0,3.6-1.7,3.6-5
		C140.2,13.6,138.9,12,136.6,12z"/>
	<path class="st0" d="M169.4,17.8h-4.4v8.1h-5.9V0.7h10.4c5.1,0,8.3,3.6,8.3,8.5C177.8,14.5,174.6,17.8,169.4,17.8z M168.2,5.6h-3.3
		v7.2h3.4c2.1,0,3.8-1.2,3.8-3.6C172,6.7,170.3,5.6,168.2,5.6z"/>
	<path class="st0" d="M181,25.8V0.7h6v19.9h10.7v5.3H181z"/>
	<path class="st0" d="M210.6,26.5c-6.1,0-10.2-3.8-10.2-9.4V0.7h6v15.9c0,3.4,1.7,4.9,4.3,4.9c2.5,0,4.4-1.5,4.4-4.9V0.7h5.8v16.4
		C220.8,22.7,216.5,26.5,210.6,26.5z"/>
	<path class="st0" d="M234,26.5c-5.2,0-8.7-2.5-10.1-6.6l4.4-3c1.1,2.9,3.4,4.6,5.7,4.6c2.5,0,3.6-1,3.6-2.5c0-1.4-0.8-2.3-3.2-3.2
		l-3.6-1.3c-3.8-1.4-5.8-3.3-5.8-7.1c0-4.1,3.3-7.4,8.9-7.4c4.5,0,7.6,1.6,9,5l-4.3,3.1c-0.8-2.1-2.5-3.2-4.5-3.2
		c-2.5,0-3.5,1-3.5,2.3c0,1,0.8,1.8,2.7,2.4l4,1.3c3.8,1.3,6.3,3.6,6.3,7.5C243.6,23.5,240.2,26.5,234,26.5z"/>
</g>
</svg>
