<svg id="Layer_1" data-name="Layer 1" xmlns="http://www.w3.org/2000/svg" viewBox="0 0 808.21 105.52"><title>Artboard 1</title><path d="M37.76,82.66V77.28c-2.61,5-8.81,6.44-13.62,6.44C12,83.72,3.1,75.48,3.1,60S13.05,36.17,24,36.17c5.3,0,9,1.47,11.25,3.75V19H49.51V82.66Zm-2.2-29.28a8.69,8.69,0,0,0-8.32-5.87c-5.3,0-9.62,4.24-9.62,12.72,0,8.24,3.91,12.32,9.7,12.32,4.57,0,8.24-3.67,8.24-9Z" style="fill:#16a1dc"/><path d="M78.05,83.72c-14.84,0-24-9.38-24-23.73s9.14-23.82,24-23.82S101.86,45.55,101.86,60,92.89,83.72,78.05,83.72Zm0-36.13c-5.79,0-9.46,4.73-9.46,12.4s3.67,12.47,9.46,12.47,9.3-4.73,9.3-12.47S83.84,47.59,78.05,47.59Z" style="fill:#16a1dc"/><path d="M128.37,83.72c-13,0-24.39-8.16-24.39-23.82,0-14.51,10-23.73,24.39-23.73,8,0,13,2,17.45,5.38l-4.48,11a13.78,13.78,0,0,0-10.93-4.89c-5.79,0-12,3.92-12,12.23,0,8.49,5.87,12.48,12.31,12.48a14.93,14.93,0,0,0,11.42-5.46l4.49,10.19C142.15,81.52,137.1,83.72,128.37,83.72Z" style="fill:#16a1dc"/><path d="M171.35,83.72c-14.84,0-24-9.38-24-23.73s9.14-23.82,24-23.82S195.17,45.55,195.17,60,186.19,83.72,171.35,83.72Zm0-36.13c-5.79,0-9.46,4.73-9.46,12.4s3.67,12.47,9.46,12.47,9.3-4.73,9.3-12.47S177.14,47.59,171.35,47.59Z" style="fill:#16a1dc"/><path d="M250.54,82.66V54.77c0-4.73-1.55-6.94-5.22-6.94-3.83,0-5.79,2.94-6,6.45V82.66H225.1V54.77c0-4.65-1.39-6.94-5.06-6.94-3.34,0-5.06,2.45-6,5.79v29H199.73V37.23h13v5.06c2-3.67,6-6.12,12.88-6.12,5.63,0,10,2.86,11.75,6.77,2-4.32,7.26-6.77,13.78-6.77,8,0,13.7,6.28,13.7,15.09v31.4Z" style="fill:#16a1dc"/><path d="M313.42,83.23a17.84,17.84,0,0,1-4.16.49c-4.81,0-9.21-2-10.19-5.22-2.94,3.75-9,5.22-15.42,5.22-9.21,0-14.19-4.81-14.27-12.56v-.25c0-8.56,4.81-13.53,15.82-15.9,5.88-1.22,9.71-2.77,9.71-4.65,0-2.61-1.47-3.18-5.87-3.18-3.67,0-10.2,2.77-13.05,6.61l-5.63-10.12c4.49-4.81,10.93-7.5,19.9-7.5,13.29,0,19.57,5.06,19.57,15.09V68.55c0,2.45,1.72,3.34,4.16,3.34a20.53,20.53,0,0,0,2.21-.16Zm-18.1-22.59a16.87,16.87,0,0,1-6.53,2.93c-3.83,1.07-5.63,2.61-5.63,6,0,2.2,1.55,3.43,4.49,3.43s6.85-2,7.67-5.22Z" style="fill:#16a1dc"/><path d="M343.19,83.72c-4,0-8.81-1.47-11.17-3.67V98.4H317.74V37.23h13v5.71c1.55-4.4,7.42-6.77,12.4-6.77,12.07,0,20.55,8.24,20.55,23.73C363.66,75.56,355,83.72,343.19,83.72Zm-3.26-36.13c-4.57,0-8.16,3.75-8.16,9V67A9,9,0,0,0,340,72.63c5.3,0,9.13-4.24,9.13-12.73C349.14,51.67,345.72,47.59,339.93,47.59Z" style="fill:#16a1dc"/><path d="M406.48,82.66h-24.8V19h24.63c17.46,0,29.94,12.24,29.94,31.81C436.25,70.59,424,82.66,406.48,82.66Zm-1.72-51h-8.07V70h8.24c9.54,0,16.23-6.85,16.23-19.17C421.16,38.13,414.23,31.69,404.76,31.69Z" style="fill:#16a1dc"/><path d="M483.22,83.23a17.84,17.84,0,0,1-4.16.49c-4.81,0-9.21-2-10.19-5.22-2.94,3.75-9,5.22-15.42,5.22-9.21,0-14.19-4.81-14.27-12.56v-.25c0-8.56,4.81-13.53,15.82-15.9,5.88-1.22,9.71-2.77,9.71-4.65,0-2.61-1.47-3.18-5.87-3.18-3.67,0-10.2,2.77-13,6.61l-5.63-10.12c4.49-4.81,10.93-7.5,19.9-7.5,13.29,0,19.57,5.06,19.57,15.09V68.55c0,2.45,1.72,3.34,4.16,3.34a20.53,20.53,0,0,0,2.21-.16Zm-18.1-22.59a16.87,16.87,0,0,1-6.53,2.93c-3.83,1.07-5.63,2.61-5.63,6,0,2.2,1.55,3.43,4.49,3.43s6.85-2,7.67-5.22Z" style="fill:#16a1dc"/><path d="M505.73,83.72c-8.07,0-16.39-2.85-21-8.48l6-10.12c4,4.41,11,7.51,15.57,7.51,3.59,0,5.06-1,5.06-3,0-2.61-2-3.59-9-5.06-11.5-2.28-16.31-7.5-16.31-14.68,0-7.75,7-13.7,19.65-13.7,8.32,0,15.66,2.69,19.33,7l-5.54,9.37a19.62,19.62,0,0,0-14-5.87c-3.67,0-5,1.06-5,2.86,0,2,1.06,2.69,7.67,4C520.66,56,526,61.29,526,69.61,526,78.66,519,83.72,505.73,83.72Z" style="fill:#16a1dc"/><path d="M560.05,82.66v-28c0-4.56-2.61-7.09-6.44-7.09a8.79,8.79,0,0,0-8.81,6.28V82.66H530.53V19H544.8v22c2.36-3,6-4.89,13-4.89,9.86,0,16.63,6.12,16.63,15.17V82.66Z" style="fill:#16a1dc"/><path d="M607.43,83.72c-6,0-11.33-2.45-13.37-6l-2.37,5H581.33V19h14.28V40.49c2-2.77,6.52-4.32,11.74-4.32,12.07,0,19.9,8.24,19.9,23.73C627.25,75.56,619.1,83.72,607.43,83.72Zm-3.91-36.13c-4.57,0-8.16,3.75-8.16,9V67a9,9,0,0,0,8.24,5.63c5.3,0,9.14-4.24,9.14-12.73C612.74,51.67,609.31,47.59,603.52,47.59Z" style="fill:#16a1dc"/><path d="M653.35,83.72c-14.84,0-24-9.38-24-23.73s9.14-23.82,24-23.82S677.17,45.55,677.17,60,668.19,83.72,653.35,83.72Zm0-36.13c-5.79,0-9.46,4.73-9.46,12.4s3.67,12.47,9.46,12.47,9.3-4.73,9.3-12.47S659.14,47.59,653.35,47.59Z" style="fill:#16a1dc"/><path d="M723.33,83.23a18,18,0,0,1-4.16.49c-4.82,0-9.22-2-10.2-5.22-2.93,3.75-9,5.22-15.41,5.22-9.22,0-14.19-4.81-14.27-12.56v-.25c0-8.56,4.81-13.53,15.82-15.9,5.87-1.22,9.7-2.77,9.7-4.65,0-2.61-1.47-3.18-5.87-3.18-3.67,0-10.19,2.77-13.05,6.61l-5.63-10.12c4.49-4.81,10.93-7.5,19.9-7.5,13.3,0,19.58,5.06,19.58,15.09V68.55c0,2.45,1.71,3.34,4.16,3.34a20.34,20.34,0,0,0,2.2-.16ZM705.22,60.64a16.82,16.82,0,0,1-6.52,2.93c-3.84,1.07-5.63,2.61-5.63,6,0,2.2,1.55,3.43,4.48,3.43s6.85-2,7.67-5.22Z" style="fill:#16a1dc"/><path d="M752.6,47.75c-5.22,0-8.89,2-10.68,6V82.66H727.65V37.23H740v4.49c3.27-3.92,7.42-5.47,15.91-5.55l2,12.15A25.58,25.58,0,0,0,752.6,47.75Z" style="fill:#16a1dc"/><path d="M792.49,82.66V77.28c-2.61,5-8.81,6.44-13.62,6.44-12.16,0-21-8.24-21-23.73s9.95-23.82,20.88-23.82c5.3,0,9,1.47,11.26,3.75V19h14.27V82.66Zm-2.21-29.28A8.68,8.68,0,0,0,782,47.51c-5.3,0-9.62,4.24-9.62,12.72,0,8.24,3.92,12.32,9.71,12.32,4.56,0,8.23-3.67,8.23-9Z" style="fill:#16a1dc"/></svg>