<?xml version="1.0" standalone="no"?>
<!DOCTYPE svg PUBLIC "-//W3C//DTD SVG 20010904//EN"
 "http://www.w3.org/TR/2001/REC-SVG-20010904/DTD/svg10.dtd">
<svg version="1.0" xmlns="http://www.w3.org/2000/svg"
 width="512.000000pt" height="512.000000pt" viewBox="0 0 512.000000 512.000000"
 preserveAspectRatio="xMidYMid meet">
<metadata>
Created by potrace 1.11, written by Peter Selinger 2001-2013
</metadata>
<g transform="translate(0.000000,512.000000) scale(0.100000,-0.100000)"
fill="#000000" stroke="none">
<path d="M790 5105 c-353 -71 -654 -338 -764 -679 l-26 -79 0 -1787 0 -1787
26 -79 c57 -176 177 -349 322 -466 87 -69 271 -170 345 -189 164 -41 103 -39
1908 -37 l1724 3 78 23 c43 12 86 27 95 31 9 5 46 24 82 41 88 45 184 108 251
169 108 97 222 270 268 408 21 62 21 68 21 1883 0 1815 0 1821 -21 1883 -18
53 -55 131 -110 227 -8 14 -20 29 -26 33 -7 4 -13 12 -13 17 0 5 -10 20 -22
32 -13 13 -45 47 -71 76 -26 29 -52 52 -57 52 -6 0 -15 9 -22 20 -7 11 -18 20
-25 20 -7 0 -16 6 -20 13 -19 29 -224 129 -328 159 l-80 23 -1735 2 c-1397 1
-1748 -1 -1800 -12z m1428 -536 c99 -49 152 -128 160 -239 l5 -65 282 -227
282 -227 44 11 c42 9 117 6 149 -6 10 -4 113 72 298 221 l283 228 4 57 c13
213 233 342 423 247 65 -32 99 -66 135 -133 31 -59 32 -203 0 -261 -29 -54
-87 -110 -141 -136 -46 -23 -151 -31 -202 -17 -23 6 -59 -20 -306 -217 l-281
-225 -6 -60 c-10 -87 -41 -153 -99 -205 -64 -57 -129 -79 -218 -73 -150 11
-254 115 -269 269 l-6 67 -281 225 -282 225 -43 -10 c-24 -5 -65 -7 -90 -5
l-45 6 -300 -300 -299 -299 0 -78 c-1 -90 -26 -153 -85 -212 -55 -55 -103 -74
-198 -78 -74 -4 -88 -1 -137 23 -103 50 -165 149 -165 265 0 78 24 141 76 199
58 65 123 92 218 92 l72 0 299 299 300 300 1 72 c2 175 122 296 295 298 54 0
77 -5 127 -31z m133 -1158 l29 -29 0 -912 0 -912 -29 -29 -29 -29 -232 0
c-147 0 -239 4 -252 11 -48 26 -48 18 -48 958 0 591 3 889 11 908 22 61 31 63
287 63 l234 0 29 -29z m1930 0 l29 -29 0 -912 0 -912 -29 -29 -29 -29 -232 0
c-147 0 -239 4 -252 11 -48 26 -48 18 -48 958 0 591 3 889 11 908 22 61 31 63
287 63 l234 0 29 -29z m-964 -774 l28 -27 3 -498 c2 -273 0 -512 -3 -531 -4
-18 -17 -44 -30 -57 -24 -24 -25 -24 -260 -24 l-237 0 -29 29 -29 29 0 522 c0
337 4 528 10 540 24 46 51 50 292 47 l228 -2 27 -28z m-1946 -177 c47 -26 49
-43 49 -470 0 -426 -3 -455 -48 -479 -13 -7 -105 -11 -252 -11 l-232 0 -29 29
-29 29 0 422 c0 431 1 448 39 477 21 16 473 18 502 3z m-356 -1480 l0 -345
-62 -3 c-62 -3 -63 -3 -63 24 0 25 -1 26 -18 11 -50 -46 -151 -60 -220 -31
-115 48 -170 193 -128 338 39 132 186 205 299 147 l37 -19 0 114 0 115 78 -3
77 -3 0 -345z m471 132 c177 -91 177 -374 0 -464 -58 -30 -159 -35 -226 -13
-71 23 -131 84 -151 150 -43 150 18 291 147 340 56 21 177 15 230 -13z m550
13 c27 -8 58 -21 68 -28 19 -14 19 -16 -3 -75 l-23 -60 -35 24 c-25 16 -50 24
-80 24 -92 0 -139 -52 -131 -148 4 -47 10 -60 38 -85 30 -27 38 -29 94 -25 43
2 71 10 93 26 l31 22 21 -50 c11 -27 21 -52 21 -57 0 -13 -61 -49 -104 -63
-55 -18 -171 -8 -222 18 -52 27 -107 90 -122 141 -46 151 27 299 168 342 42
12 134 10 186 -6z m493 0 c106 -37 152 -105 159 -231 4 -76 2 -89 -23 -140
-47 -95 -137 -141 -258 -132 -98 8 -169 54 -213 138 -14 26 -19 56 -19 120 0
64 5 94 19 120 35 66 87 110 156 131 42 13 135 10 179 -6z m585 1 c18 -8 40
-23 48 -35 l15 -21 23 25 c13 14 40 29 59 35 92 25 162 0 199 -70 21 -41 22
-57 22 -238 l0 -193 -77 3 -78 3 -5 175 c-3 96 -9 181 -13 188 -11 16 -59 15
-83 -2 -17 -13 -19 -30 -22 -191 l-3 -176 -77 3 -77 3 -3 174 c-1 108 -7 180
-13 188 -17 20 -64 16 -85 -8 -17 -19 -19 -41 -22 -190 l-3 -169 -75 0 -74 0
0 250 0 250 70 0 c70 0 70 0 71 -27 0 -16 3 -22 6 -14 8 20 83 51 126 51 21 0
53 -6 71 -14z m806 -11 c66 -39 75 -62 78 -208 2 -73 9 -138 14 -144 6 -7 21
-13 33 -13 l23 0 -17 -62 -17 -63 -52 0 c-36 1 -60 7 -79 21 -27 20 -28 21
-60 2 -37 -22 -124 -34 -177 -24 -82 15 -127 93 -105 181 15 58 61 100 137
120 106 29 127 40 130 63 7 45 -83 42 -159 -7 l-45 -28 -27 47 c-15 27 -27 53
-27 58 0 13 60 51 109 69 54 20 198 13 241 -12z m594 -12 c22 -16 52 -49 66
-73 22 -40 25 -57 25 -150 0 -93 -3 -110 -25 -150 -51 -91 -171 -135 -264 -96
-21 9 -40 16 -42 16 -2 0 -4 -43 -4 -95 l0 -95 -80 0 -80 0 0 335 0 335 70 0
c69 0 70 0 70 -27 l0 -26 23 21 c35 33 67 42 136 38 50 -3 72 -10 105 -33z"/>
<path d="M710 990 c-86 -86 -26 -268 80 -245 53 12 70 47 70 140 0 72 -3 84
-23 103 -31 29 -99 30 -127 2z"/>
<path d="M1290 986 c-44 -48 -44 -164 0 -211 40 -43 113 -38 145 11 37 56 28
162 -18 204 -31 30 -97 27 -127 -4z"/>
<path d="M2370 990 c-63 -63 -50 -204 22 -234 42 -18 80 -11 109 20 48 51 34
194 -20 224 -33 17 -89 12 -111 -10z"/>
<path d="M3800 853 c-85 -37 -85 -37 -85 -73 0 -33 2 -35 37 -38 52 -4 88 31
88 88 0 22 -1 40 -2 39 -2 0 -19 -7 -38 -16z"/>
<path d="M4290 985 c-19 -20 -24 -39 -28 -104 -4 -75 -3 -81 21 -105 52 -52
122 -42 152 21 25 53 17 154 -15 188 -33 35 -97 35 -130 0z"/>
</g>
</svg>
